<svg width="26" height="26" viewBox="0 0 26 26" fill="none" xmlns="http://www.w3.org/2000/svg">
<path fill-rule="evenodd" clip-rule="evenodd" d="M13 0C5.8203 0 0 5.8203 0 13C0 20.1797 5.8203 26 13 26C20.1797 26 26 20.1797 26 13C26 5.8203 20.1797 0 13 0ZM12.3088 7.7736C11.9352 7.43739 11.3598 7.46768 11.0236 7.84124C10.6874 8.21481 10.7177 8.79019 11.0912 9.1264L11.7 8.45L11.0913 9.12641L11.0914 9.12652L11.0919 9.12701L11.0942 9.1291L11.1037 9.13762L11.1411 9.17138L11.2841 9.30084C11.4075 9.41281 11.5841 9.57347 11.796 9.76776C12.2203 10.1567 12.7848 10.6788 13.3482 11.2141C13.9139 11.7515 14.4695 12.2936 14.8801 12.7247C14.9765 12.8259 15.0619 12.9179 15.1358 13C15.0619 13.0821 14.9765 13.1741 14.8801 13.2753C14.4695 13.7064 13.9139 14.2485 13.3482 14.7859C12.7848 15.3212 12.2203 15.8433 11.796 16.2322C11.5841 16.4265 11.4075 16.5872 11.2841 16.6992L11.1411 16.8286L11.1037 16.8624L11.0942 16.8709L11.0919 16.873L11.0914 16.8735L11.0913 16.8736L11.7 17.55L11.0912 16.8736C10.7177 17.2098 10.6874 17.7852 11.0236 18.1588C11.3598 18.5323 11.9352 18.5626 12.3088 18.2264L11.7 17.55L12.3088 18.2263L12.309 18.2261L12.3097 18.2255L12.3124 18.2232L12.3224 18.2141L12.3611 18.1792L12.5069 18.0472C12.6323 17.9334 12.8112 17.7706 13.0258 17.5739C13.4547 17.1807 14.0277 16.6507 14.6018 16.1054C15.1736 15.5621 15.7555 14.9951 16.198 14.5305C16.4174 14.3001 16.6162 14.0807 16.7651 13.8946C16.8381 13.8033 16.9145 13.7011 16.9771 13.5977C17.0084 13.5461 17.0467 13.4773 17.0795 13.397C17.1073 13.3288 17.16 13.1845 17.16 13C17.16 12.8155 17.1073 12.6712 17.0795 12.603C17.0467 12.5227 17.0084 12.4539 16.9771 12.4023C16.9145 12.2989 16.8381 12.1967 16.7651 12.1054C16.6162 11.9193 16.4174 11.6999 16.198 11.4695C15.7555 11.0049 15.1736 10.4379 14.6018 9.89462C14.0277 9.3493 13.4547 8.81927 13.0258 8.42614C12.8112 8.22942 12.6323 8.0666 12.5069 7.95285L12.3611 7.82082L12.3224 7.78591L12.3124 7.77684L12.3097 7.77448L12.309 7.77386L12.3088 7.77368L11.7 8.45L12.3088 7.7736Z" fill="#F25448"/>
</svg>
